Coordinates
version=1
nRows=22
nColumns=18
inDegrees=yes

Units are S.I. units (second, meters, Newtons, ...)
Angles are in degrees.

endheader
time	ground_thorax_rot_x	ground_thorax_rot_y	ground_thorax_rot_z	ground_thorax_tx	ground_thorax_ty	ground_thorax_tz	clav_prot	clav_elev	scapula_abduction	scapula_elevation	scapula_upward_rot	scapula_winging	plane_elv	shoulder_elv	axial_rot	elbow_flexion	pro_sup
      2.22000000	      1.05192948	     -6.73554760	    -10.20019774	     -0.00423131	      0.00403036	     -0.00078352	    -21.92715791	      1.59179916	     -9.56749950	     -1.00382483	     18.78439215	      2.37890462	    -19.96737527	     10.81814311	     53.62857726	      0.00000000	     34.32000000
      2.23000000	      1.13823945	     -7.27811019	    -10.14926141	     -0.00423131	      0.00403036	     -0.00078352	    -21.37876211	      0.18046717	     -8.33197531	     -1.95890791	     18.48463994	      2.70017751	    -22.73070073	     12.31598135	     52.63035467	      0.00000000	     34.32000000
      2.24000000	      1.29367954	     -7.55020308	    -10.07410750	     -0.00423131	      0.00403036	     -0.00078352	    -21.18940383	     -0.81316558	     -7.79312112	     -2.65876982	     18.33338806	      2.95037828	    -24.13976446	     13.20987334	     52.13812732	      0.00000000	     34.32000000
      2.25000000	      1.33966629	     -7.69718703	     -9.93261974	     -0.00423131	      0.00403036	     -0.00078352	    -21.04561322	     -1.42365896	     -7.50081332	     -3.05758215	     18.11740749	      3.14807298	    -25.08813622	     13.81326789	     52.46198560	      0.00000000	     34.32000000
      2.26000000	      1.35957954	     -7.53732173	     -9.88303338	     -0.00423131	      0.00403036	     -0.00078352	    -20.96160756	     -1.86100409	     -7.53695073	     -3.26348101	     17.63257125	      3.38354926	    -24.10070652	     15.02134530	     45.60506238	      0.00000000	     34.32000000
      2.27000000	      1.68540822	     -7.24954720	     -9.79455640	     -0.00423131	      0.00403036	     -0.00078352	    -20.78472391	     -1.85542336	     -7.44476261	     -3.16365224	     17.28754614	      3.45794063	    -24.18335848	     15.62138507	     45.72929100	      0.00000000	     34.32000000
      2.28000000	      1.67715846	     -7.26823660	     -9.59101487	     -0.00423131	      0.00403036	     -0.00078352	    -19.96301852	     -2.16785947	     -6.49058593	     -3.12306619	     16.36336076	      3.70115280	    -24.94037781	     16.32680117	     48.42492979	      0.00000000	     34.32000000
      2.29000000	      2.10588695	     -6.74223604	     -9.69523144	     -0.00423131	      0.00403036	     -0.00078352	    -19.75284272	     -2.34903795	     -6.26043972	     -3.17167144	     16.05765018	      3.80439715	    -25.06499761	     16.91748019	     48.46002116	      0.00000000	     34.32000000
      2.30000000	      1.84068859	     -6.61742285	     -9.52306121	     -0.00423131	      0.00403036	     -0.00078352	    -19.06420109	     -2.96463893	     -5.44376758	     -3.36933535	     15.14452458	      4.11880966	    -25.00872741	     18.01474092	     44.56395323	      0.00000000	     34.32000000
      2.31000000	      1.79495573	     -6.28257083	     -9.52758309	     -0.00423131	      0.00403036	     -0.00078352	    -18.96714631	     -3.20441148	     -5.38958703	     -3.47065990	     14.84912504	      4.24823341	    -24.59195359	     18.15953194	     45.18552053	      0.00000000	     34.32000000
      2.32000000	      1.75466051	     -6.24159405	     -9.58287744	     -0.00423131	      0.00403036	     -0.00078352	    -18.91165631	     -3.23172689	     -5.38411261	     -3.44593818	     14.68403025	      4.29057692	    -23.22796954	     18.38697147	     41.79048452	      0.00000000	     34.32000000
      2.33000000	      1.56989140	     -6.30030501	     -9.68091718	     -0.00423131	      0.00403036	     -0.00078352	    -18.90459205	     -3.43680675	     -5.47103455	     -3.53633704	     14.43096153	      4.41329404	    -21.95909744	     18.76335031	     37.54434067	      0.00000000	     34.32000000
      2.34000000	      1.52260044	     -6.35677258	     -9.72796079	     -0.00423131	      0.00403036	     -0.00078352	    -18.89079526	     -3.52358113	     -5.47608323	     -3.57957433	     14.34531455	      4.45836476	    -21.79518698	     18.88587306	     37.00990296	      0.00000000	     34.32000000
      2.35000000	      1.64044228	     -6.40864073	     -9.71849605	     -0.00423131	      0.00403036	     -0.00078352	    -18.85252333	     -3.43321783	     -5.32902743	     -3.55336271	     14.51771068	      4.38230005	    -22.66357408	     18.45103636	     43.51949256	      0.00000000	     34.32000000
      2.36000000	      1.64211135	     -6.36088957	     -9.70067568	     -0.00423131	      0.00403036	     -0.00078352	    -18.85336618	     -3.43732922	     -5.32365729	     -3.55895870	     14.52719107	      4.38080852	    -22.66405160	     18.45757597	     43.51952839	      0.00000000	     34.32000000
      2.37000000	      1.58546205	     -6.18087880	     -9.79676288	     -0.00423131	      0.00403036	     -0.00078352	    -19.03522714	     -3.53581907	     -5.60148604	     -3.65116079	     14.55584223	      4.42934363	    -22.03352975	     18.30397375	     41.51168814	      0.00000000	     34.32000000
      2.38000000	      1.49515748	     -6.26891900	     -9.68826725	     -0.00423131	      0.00403036	     -0.00078352	    -19.00632236	     -3.51386852	     -5.57020203	     -3.62668799	     14.53214333	      4.42480424	    -21.75545815	     17.72163817	     41.60356260	      0.00000000	     34.32000000
      2.39000000	      1.51897458	     -6.31066234	     -9.77840970	     -0.00423131	      0.00403036	     -0.00078352	    -19.13712345	     -3.56075993	     -5.76069567	     -3.68120517	     14.57791474	      4.44593455	    -21.78354909	     16.55039748	     48.41986840	      0.00000000	     34.32000000
      2.40000000	      1.45467498	     -6.38341703	     -9.77267644	     -0.00423131	      0.00403036	     -0.00078352	    -19.08943079	     -3.74656677	     -5.72215734	     -3.78087006	     14.42496238	      4.53310136	    -22.38802475	     16.05814495	     49.82600932	      0.00000000	     34.32000000
      2.41000000	      1.51466018	     -6.30963825	     -9.77473513	     -0.00423131	      0.00403036	     -0.00078352	    -19.11885564	     -3.81859070	     -5.82635796	     -3.80671369	     14.30648045	      4.58929684	    -23.36121236	     15.55531149	     53.89061758	      0.00000000	     34.32000000
      2.42000000	      1.41230673	     -6.28157290	     -9.72542159	     -0.00423131	      0.00403036	     -0.00078352	    -19.02846478	     -4.04452684	     -5.80775955	     -3.88905667	     13.97705907	      4.72784485	    -23.57450227	     15.51564136	     53.19277493	      0.00000000	     34.32000000
      2.43000000	      1.54446376	     -6.28740883	     -9.73920355	     -0.00423131	      0.00403036	     -0.00078352	    -19.01488664	     -4.05380521	     -5.81244927	     -3.88161127	     13.92449997	      4.74220331	    -23.56434886	     15.38983288	     53.19645446	      0.00000000	     34.32000000
